<svg xmlns="http://www.w3.org/2000/svg" xmlns:xlink="http://www.w3.org/1999/xlink" width="100.0" height="100.0" viewBox="0.7302307885294491 6.72294150537328 0.16786749614791385 0.13447239466238692" preserveAspectRatio="xMinYMin meet"><g transform="matrix(1,0,0,-1,0,13.580355405408946)"><g><path fill-rule="evenodd" fill="#66cc99" stroke="#555555" stroke-width="0.003357349922958277" opacity="0.6" d="M 0.752276848044431,6.837857401603117 L 0.751373207848768,6.84089055045879 L 0.751373207425865,6.840890640830846 L 0.752689686163425,6.841160142404018 L 0.755174700886975,6.841937123240685 L 0.758046979671758,6.841759198960418 L 0.760724263966881,6.842345638405697 L 0.762629667703056,6.844267822776394 L 0.76415838131227,6.84484890254543 L 0.766450619707012,6.84635833021771 L 0.76854793100296,6.847739327585994 L 0.770264622043577,6.849086560621827 L 0.77140346,6.851196585363522 L 0.775191026915783,6.850281021060914 L 0.778576076095775,6.849111323693923 L 0.78036920879071,6.849194261056804 L 0.783482763984432,6.848610709974726 L 0.786240691436024,6.847308004675079 L 0.788277434572909,6.846719455289271 L 0.793785553896993,6.845788138084229 L 0.800365002264892,6.846057427014094 L 0.806227155593164,6.846203785978892 L 0.80873918197245,6.846334813275631 L 0.812924188408714,6.846951810671942 L 0.816869822720657,6.847567687547319 L 0.821056969121632,6.847706260317835 L 0.830627838446713,6.847988792033274 L 0.835392288052436,6.848059442837037 L 0.83864598038448,6.847666117736589 L 0.839726051662211,6.846953455654775 L 0.840922592351481,6.846958832298949 L 0.842357845423003,6.847084849207663 L 0.843198588990142,6.846371102808931 L 0.84499386439895,6.846259583333607 L 0.846431340397385,6.845907219876778 L 0.846317540725263,6.84459123883016 L 0.846562225092352,6.843396435250138 L 0.847400277212899,6.843280615553862 L 0.849072707913317,6.843886049870199 L 0.85097537014847,6.846525507543929 L 0.853601762821829,6.847852720307761 L 0.856829731234578,6.848465080540324 L 0.859580659685038,6.848716578125111 L 0.862331596271915,6.848967970460368 L 0.868314199708703,6.848994549471313 L 0.87142464453038,6.849127912637286 L 0.875611439279169,6.84938568084442 L 0.880155095713125,6.850123286205703 L 0.885659720884999,6.850027969228456 L 0.890273107797804,6.851134278851888 L 0.889825667386122,6.847304010716441 L 0.88872878330155,6.844216180968147 L 0.88701552314558,6.841002455301324 L 0.886162733635968,6.838532284048963 L 0.885312585693867,6.835445632385651 L 0.884934616025888,6.833663725834675 L 0.885071731991461,6.831856786403748 L 0.886091377340159,6.830365536181954 L 0.886126798888509,6.830366414647515 L 0.886127249533715,6.830365693577934 L 0.886384916097858,6.8269698282292 L 0.887656869720126,6.823210731997369 L 0.887983580237525,6.822245258376683 L 0.890933789928726,6.813765514701383 L 0.891682071601627,6.808923400474691 L 0.891675748483561,6.808919757603364 L 0.891683222990833,6.808915903788008 L 0.890862116406532,6.802360889863474 L 0.890652642585446,6.794716639328848 L 0.888998907802752,6.784275648672015 L 0.887837413356133,6.772259645924287 L 0.890678284358749,6.760867661024267 L 0.891880970005218,6.752478080265019 L 0.890311092923243,6.751513505529446 L 0.88698458569326,6.7495289462403 L 0.883351560464814,6.74830080264205 L 0.87639478507023,6.744481852073116 L 0.87275721602481,6.744314523532186 L 0.868817804803244,6.743842712239162 L 0.863362527157506,6.743364144630271 L 0.854886193846855,6.740447617607178 L 0.84913385705317,6.738603769288356 L 0.840351166383156,6.736443432375149 L 0.836417975720449,6.734607504867994 L 0.832935608115189,6.73368276633005 L 0.829752308576667,6.733668635833737 L 0.826418183081122,6.733502339187496 L 0.82187066779149,6.733482086472064 L 0.819596878111943,6.733471944105253 L 0.816569329166436,6.732549130561731 L 0.813085626272224,6.731927387712528 L 0.811267349605002,6.731767683837275 L 0.809750121276916,6.732064012386013 L 0.807783850194716,6.732119272936915 L 0.806883624985022,6.734654024475564 L 0.804675031870126,6.734408851586379 L 0.802703815423603,6.734551551280633 L 0.798317232256389,6.73433992976385 L 0.794521134089529,6.733908519278824 L 0.792402462865402,6.733141233107826 L 0.786655483050498,6.730236027841204 L 0.784991502717802,6.729470867346683 L 0.783022390018273,6.729158820045424 L 0.781202793114482,6.729302125172413 L 0.780287756626994,6.730510272247559 L 0.779822696225609,6.732781201073046 L 0.779654578732058,6.736417338276426 L 0.779339699627972,6.738992066601893 L 0.780237447748432,6.741572220664963 L 0.780836943369771,6.743090368776223 L 0.782132365335813,6.747368417250157 L 0.782629014590393,6.749008468062657 L 0.783439989406739,6.753587347466953 L 0.783424303705477,6.757031321483744 L 0.783222440651457,6.759326402042378 L 0.781679883321352,6.76180669664649 L 0.778989838740208,6.764090417228357 L 0.775917839305815,6.766181042803203 L 0.773989780007317,6.769233593197574 L 0.772442747110556,6.772670523664362 L 0.770784428078707,6.774290843246008 L 0.771011618313559,6.776922705390685 L 0.770883223928256,6.778835446971315 L 0.770396420153136,6.780626975058833 L 0.769190270068189,6.782773892125636 L 0.76762294457819,6.7853975845862 L 0.766534163285917,6.78802338120698 L 0.765448677818926,6.789931701575239 L 0.765321346090381,6.791605215651021 L 0.763390095050642,6.795303378698745 L 0.76230180723035,6.7978095870741 L 0.75845863938684,6.801020515461595 L 0.753899301769756,6.803869376034484 L 0.74853101559422,6.810022807167396 L 0.736448103201594,6.820990036227436 L 0.738138443041437,6.822809220005348 L 0.74195501563131,6.825338304861139 L 0.743743390315868,6.826662061373993 L 0.746130789915235,6.828326251498298 L 0.748751903984736,6.830153295900298 L 0.750663919391814,6.830640574870377 L 0.752329378452742,6.832681216864532 L 0.752276848044431,6.837857401603117 z" /></g></g></svg>